<svg width="24" height="24" viewBox="0 0 24 24" fill="none" xmlns="http://www.w3.org/2000/svg">
<mask id="path-1-inside-1_82:897" fill="white">
<path d="M23.7759 7.99842C22.3352 13.4987 12.0075 24 12.0075 24C12.0075 24 1.14005 12.9987 0.154245 7.99842C-0.831558 2.99816 3.11646 0 6.06916 0C9.02187 0 12.0075 2.49815 12.0075 2.49815C12.0075 2.49815 14.4588 -0.00196241 17.4061 4.52652e-06C20.3534 0.00197146 25.0856 2.99818 23.7759 7.99842Z"/>
</mask>
<path d="M12.0075 24L13.4334 25.4024C13.058 25.7841 12.5451 25.9994 12.0097 26C11.4742 26.0006 10.9609 25.7865 10.5846 25.4055L12.0075 24ZM23.7759 7.99842L25.7106 8.50519L23.7759 7.99842ZM17.4061 4.52652e-06L17.4048 2L17.4061 4.52652e-06ZM12.0075 2.49815L13.4355 3.89837L12.1415 5.21812L10.724 4.03203L12.0075 2.49815ZM0.154245 7.99842L2.11647 7.61156V7.61156L0.154245 7.99842ZM12.0075 24C10.5815 22.5976 10.5814 22.5977 10.5814 22.5978C10.5814 22.5977 10.5814 22.5977 10.5815 22.5977C10.5816 22.5975 10.5819 22.5972 10.5823 22.5968C10.5832 22.5959 10.5847 22.5943 10.5869 22.5922C10.5911 22.5878 10.5978 22.581 10.6069 22.5717C10.625 22.5532 10.6525 22.5249 10.689 22.4874C10.7619 22.4123 10.8703 22.3002 11.0094 22.1549C11.2878 21.8641 11.6891 21.4407 12.1759 20.9147C13.1507 19.8614 14.4625 18.4036 15.8153 16.7811C17.1717 15.1541 18.5485 13.3864 19.6647 11.7105C20.8086 9.99277 21.5685 8.53243 21.8411 7.49165L25.7106 8.50519C25.2629 10.2145 24.1915 12.1295 22.9939 13.9277C21.7684 15.7678 20.2931 17.6567 18.8876 19.3425C17.4783 21.0328 16.1181 22.5441 15.1115 23.6317C14.6075 24.1762 14.1907 24.6162 13.8987 24.9212C13.7526 25.0737 13.6377 25.1926 13.5586 25.274C13.5191 25.3148 13.4885 25.3461 13.4674 25.3677C13.4569 25.3785 13.4487 25.3868 13.443 25.3926C13.4402 25.3955 13.438 25.3977 13.4364 25.3994C13.4355 25.4002 13.4349 25.4009 13.4344 25.4014C13.4342 25.4016 13.4339 25.4019 13.4338 25.402C13.4336 25.4022 13.4334 25.4024 12.0075 24ZM21.8411 7.49165C22.2894 5.78042 21.737 4.49362 20.78 3.54593C19.736 2.512 18.3105 2.00061 17.4048 2L17.4074 -1.99999C19.449 -1.99863 21.8632 -1.01094 23.5947 0.703791C25.4132 2.50475 26.5721 5.21618 25.7106 8.50519L21.8411 7.49165ZM17.4048 2C16.4732 1.99938 15.5058 2.40685 14.6757 2.93539C14.2783 3.18845 13.9536 3.44301 13.7314 3.63177C13.6212 3.72538 13.5388 3.80067 13.4877 3.84858C13.4623 3.87247 13.4449 3.88936 13.436 3.89809C13.4315 3.90245 13.4292 3.90475 13.4291 3.90485C13.4291 3.9049 13.4296 3.9044 13.4307 3.90332C13.4312 3.90279 13.4319 3.90211 13.4327 3.90128C13.4331 3.90087 13.4335 3.90042 13.434 3.89993C13.4342 3.89969 13.4346 3.8993 13.4347 3.89918C13.4351 3.89878 13.4355 3.89837 12.0075 2.49815C10.5794 1.09794 10.5798 1.09751 10.5802 1.09707C10.5804 1.09691 10.5808 1.09646 10.5811 1.09615C10.5818 1.09551 10.5824 1.09483 10.5831 1.09412C10.5846 1.09268 10.5861 1.0911 10.5878 1.08936C10.5913 1.08588 10.5953 1.08179 10.6 1.07711C10.6094 1.06775 10.6212 1.05601 10.6354 1.04206C10.6639 1.01417 10.702 0.977347 10.7494 0.932883C10.8439 0.844075 10.976 0.724059 11.1417 0.58331C11.4712 0.303367 11.9436 -0.0669881 12.5274 -0.438706C13.6598 -1.15973 15.3917 -2.00134 17.4074 -1.99999L17.4048 2ZM12.0075 2.49815C10.724 4.03203 10.7244 4.03232 10.7247 4.03261C10.7248 4.03269 10.7251 4.03297 10.7253 4.03314C10.7257 4.03347 10.7261 4.03376 10.7264 4.03402C10.727 4.03454 10.7275 4.03491 10.7277 4.03514C10.7283 4.03559 10.7282 4.03547 10.7273 4.0348C10.7257 4.03344 10.7213 4.02986 10.7143 4.0242C10.7004 4.01288 10.676 3.9933 10.6418 3.96665C10.5735 3.91324 10.467 3.832 10.328 3.73217C10.0483 3.53122 9.64675 3.26192 9.16853 2.99418C8.16148 2.43035 7.03695 2 6.06916 2V-2C8.05408 -2 9.8987 -1.18127 11.1226 -0.496025C11.7599 -0.139231 12.2893 0.21601 12.6617 0.483465C12.8487 0.617836 12.9985 0.731763 13.105 0.814975C13.1583 0.856627 13.2009 0.890723 13.2321 0.915995C13.2477 0.928636 13.2605 0.939083 13.2703 0.947179C13.2752 0.951228 13.2794 0.95469 13.2828 0.957547C13.2845 0.958975 13.2861 0.960252 13.2874 0.961375C13.2881 0.961937 13.2887 0.96246 13.2893 0.962944C13.2896 0.963186 13.29 0.963521 13.2901 0.963642C13.2905 0.963966 13.2909 0.964281 12.0075 2.49815ZM6.06916 2C4.19247 2 1.40869 4.02147 2.11647 7.61156L-1.80798 8.38527C-3.0718 1.97485 2.04045 -2 6.06916 -2V2ZM2.11647 7.61156C2.28032 8.44264 2.94232 9.7844 4.08581 11.498C5.18559 13.1461 6.58438 14.927 7.98087 16.5867C9.37275 18.2409 10.738 19.746 11.757 20.8392C12.2658 21.3851 12.6867 21.8264 12.9792 22.1302C13.1255 22.2821 13.2396 22.3995 13.3164 22.4783C13.3549 22.5177 13.384 22.5474 13.4032 22.5669C13.4128 22.5767 13.4199 22.5839 13.4245 22.5885C13.4267 22.5908 13.4284 22.5925 13.4293 22.5935C13.4298 22.594 13.4302 22.5943 13.4303 22.5945C13.4304 22.5946 13.4304 22.5946 13.4304 22.5946C13.4304 22.5946 13.4303 22.5945 12.0075 24C10.5846 25.4055 10.5844 25.4054 10.5842 25.4051C10.5841 25.405 10.5839 25.4048 10.5836 25.4045C10.5831 25.404 10.5825 25.4033 10.5816 25.4025C10.58 25.4008 10.5777 25.3985 10.5747 25.3955C10.5688 25.3895 10.5603 25.3809 10.5493 25.3697C10.5273 25.3473 10.4953 25.3146 10.4539 25.2722C10.3711 25.1874 10.2508 25.0635 10.0979 24.9048C9.79234 24.5875 9.35646 24.1303 8.83105 23.5666C7.78161 22.4408 6.36839 20.8831 4.92019 19.162C3.4766 17.4463 1.9737 15.5392 0.758579 13.7183C-0.412827 11.9628 -1.47893 10.0543 -1.80798 8.38527L2.11647 7.61156Z" fill="#143550" mask="url(#path-1-inside-1_82:897)"/>
</svg>
